<svg width="200" height="200" viewBox="0 0 200 200" fill="none" xmlns="http://www.w3.org/2000/svg">
<rect width="200" height="200" fill="#E5E5E5"/>
<rect width="200" height="200" fill="white"/>
<path d="M185 0.75H15C7.12994 0.75 0.75 7.12994 0.75 15V185C0.75 192.87 7.12994 199.25 15 199.25H185C192.87 199.25 199.25 192.87 199.25 185V15C199.25 7.12994 192.87 0.75 185 0.75Z" fill="white" stroke="#999999" stroke-width="1.5"/>
<path d="M102 37H97C91.4772 37 87 41.4772 87 47V152C87 157.523 91.4772 162 97 162H102C107.523 162 112 157.523 112 152V47C112 41.4772 107.523 37 102 37Z" fill="#999999"/>
<path d="M37 97V102C37 107.523 41.4772 112 47 112H152C157.523 112 162 107.523 162 102V97C162 91.4772 157.523 87 152 87H47C41.4772 87 37 91.4772 37 97Z" fill="#999999"/>
</svg>
